PathFileType	4	(X/Y/Z)	C:\Users\gl24\Desktop\Patient 1 Synergy Driven Model\NMS_Pipeline_Results_NewModel\Right\TRC Data (Extra Frame)\Patient3_NormalGait_1pt2_02_Right_25.trc.trc
DataRate	CameraRate	NumFrames	NumMarkers	Units	OrigDataRate	OrigDataStartFrame	OrigNumFrames
87.500000000000	87.500000000000	4	33	mm	87.500000000000	54	       142
Frame#	Time	L.Toe			R.Toe			L.Heel			Neck			R.Shoulder			L.Shank.Lateral			R.Shank.Lateral			R.Midfoot.Lateral			L.Shoulder			R.Midfoot.Superior			R.Elbow			L.Wrist			L.Elbow			R.Heel			R.Wrist			L.Midfoot.Superior			R.Thigh.Superior			Sternum			R.Shank.Superior			R.Shank.Inferior			L.Thigh.Superior			R.Patella			L.Midfoot.Lateral			L.Shank.Inferior			L.Patella			R.Thigh.Inferior			R.Thigh.Lateral			L.Thigh.Inferior			L.Thigh.Lateral			R.Asis			L.Asis			L.Shank.Superior			Sacral			
		X1	Y1	Z1	X2	Y2	Z2	X3	Y3	Z3	X4	Y4	Z4	X5	Y5	Z5	X6	Y6	Z6	X7	Y7	Z7	X8	Y8	Z8	X9	Y9	Z9	X10	Y10	Z10	X11	Y11	Z11	X12	Y12	Z12	X13	Y13	Z13	X14	Y14	Z14	X15	Y15	Z15	X16	Y16	Z16	X17	Y17	Z17	X18	Y18	Z18	X19	Y19	Z19	X20	Y20	Z20	X21	Y21	Z21	X22	Y22	Z22	X23	Y23	Z23	X24	Y24	Z24	X25	Y25	Z25	X26	Y26	Z26	X27	Y27	Z27	X28	Y28	Z28	X29	Y29	Z29	X30	Y30	Z30	X31	Y31	Z31	X32	Y32	Z32	X33	Y33	Z33	

54	28.925714285714	706.914038160818	49.907057670299	386.599386779569	717.213212541229	38.949375732175	548.739539554853	444.198783124857	164.856579582765	442.948075755062	511.929807880849	1461.358411395317	503.698410668678	590.379553483999	1425.526517472500	660.647562639335	641.361824534925	403.854462254463	339.515578021599	536.490964105326	346.536838995733	642.767209981026	504.279200132161	33.617672500720	587.511472724118	571.793802221858	1434.331443018802	343.374212646407	594.694449416546	90.291233579361	543.194167093015	630.592460667380	1079.302500591507	772.083114798259	611.388973906594	860.623069421616	221.836981173549	510.417682662443	1098.356277142665	244.372648306614	420.043114919179	43.302951206730	525.642690282490	809.984171028233	897.041119361603	784.129949227268	621.602475109287	139.120532736579	404.294656225424	698.692727780891	714.438122839789	613.502429675565	672.907752721219	1376.210377488158	491.557544073718	622.867281078936	382.273372921699	592.716541528027	574.755150718490	212.757122531121	563.690322934712	754.257689626904	775.812630426333	368.841916469168	664.716512811681	489.411291806134	582.916105029832	508.873859660770	126.162498601306	374.860763185902	657.670487296457	285.439792613784	401.514062030034	836.324856482962	519.375511315807	398.361912720375	683.549741532602	602.181706461108	594.521176132588	608.442089302458	662.449647158197	663.153828381544	800.872407826617	658.310071291368	377.591528657425	695.514515446334	671.753227737699	325.796804493507	659.943574904961	979.936249504408	618.925888427762	645.379242457278	961.370783849727	362.058232660762	751.025207421653	413.703303824715	384.294665256671	471.945084018473	994.520506245918	506.011632933716	
55	28.937142857143	741.098053924442	50.270378869392	385.461760821961	703.553216280768	38.394326158191	548.740609531654	470.887982157130	146.759181413339	441.937321143797	511.645007099996	1461.566482560548	503.898533255690	590.475877437671	1425.720381940012	660.632819593382	651.898706301552	398.669279977518	338.471643896975	525.265896315114	347.008869456316	642.801790179287	490.668539907102	34.186092106054	587.363112085785	570.938759970109	1433.986162071393	343.337328388070	581.350545064429	90.329224213417	543.190277476319	633.948291935988	1080.011129479951	773.056496664138	601.840086119266	859.158156747760	222.435724884586	505.234037343443	1098.472231272034	245.758045299949	406.520106406657	44.383593912600	525.428313061645	818.808745520860	903.129386115523	783.536691741708	649.759238591614	133.362543342337	403.281298693746	692.817861770678	713.172556304997	612.819499319939	672.351870698802	1375.847285667284	491.397895907811	611.999805572902	381.938029497914	592.877139915155	562.445201255439	212.851699339948	563.755627522034	753.898937289997	778.948177922319	369.155371036152	654.921960382165	488.123880932585	583.082113081456	538.146597764454	112.744483315136	373.755565292083	675.879127343482	281.635823208438	400.857648768130	839.517936972242	524.700498880296	398.324898235672	675.973231709979	601.066122931396	594.117187440055	601.930146409236	662.273788101506	662.935298860758	802.450097430416	662.635510617168	378.257948049615	697.810569113508	674.362991393038	324.904963768496	657.392809837153	979.308895618775	619.118574563215	643.612793151769	961.384631509360	362.171600096729	760.283524951835	415.745367998698	383.850429387160	470.166123611253	994.457732430513	505.735442081563	
56	28.948571428571	775.504575048703	51.283474619128	384.322465741052	689.896872350762	37.831675606114	548.750719976200	499.042500905595	128.991494286986	440.683836354255	511.401780479019	1461.631052253085	504.031866335891	590.536094559651	1425.713003096551	660.574408591910	661.910833192731	392.924611872617	337.351249134183	514.131741575071	347.548591106532	642.854971501334	477.066965503830	34.805349650097	587.254757320195	570.202443025812	1433.542454227978	343.266671368048	568.056947153672	90.390433686073	543.230301366279	637.183114968352	1080.553006653460	773.926817597232	592.470663823824	857.664729088419	223.047575859658	500.429032254266	1098.546939694154	247.108537436993	392.997313674930	45.592041554625	525.260246011980	827.161566154844	909.037417129284	782.861453027741	678.573572224402	127.925145981073	402.114187387342	686.987512609578	711.890310032317	612.153565225853	671.830222033842	1375.327241350760	491.223017307510	601.221482231537	381.637283073839	593.026489212646	550.183160295137	212.995745984529	563.845421803098	753.132632718978	781.495776039574	369.538643640850	645.197055616677	486.779203673276	583.154991584245	568.579685129047	99.722858462441	372.470218022740	693.996903985664	277.808517220409	399.972613734623	841.148664738500	529.078178867859	398.232578542223	668.561572755110	599.978540716065	593.704516395480	595.482356823769	662.051518398595	662.703790232743	803.254103598650	666.150222894979	378.981225392832	699.340980004721	676.526218312973	324.072643553348	654.788810515235	978.579127693857	619.204826192019	641.838280811971	961.221411250266	362.145354080196	768.424066740578	417.379039264267	383.236405476981	468.462011050054	994.121608066056	505.282379255271	
57	28.960000000000	809.957522947619	53.227673007008	383.181518829123	676.247887596635	37.262329321223	548.767868228390	528.580477093161	111.986432199264	439.257284432532	511.199909771323	1461.561503083543	504.098531957463	590.561644852250	1425.520556541841	660.471455521712	671.349469663411	386.716453009304	336.167574421847	503.075698282488	348.173816658490	642.918959474033	463.476898895744	35.479519041377	587.182094744397	569.587542487914	1433.019272015988	343.162907291879	554.811583278445	90.471569586343	543.309684268577	640.284462228949	1080.939258368976	774.681708308248	583.347355807405	856.171739017602	223.670125671354	496.026831994284	1098.593134554379	248.390181453558	379.478324336345	46.929694248037	525.142792504355	835.019818583191	914.730707187778	782.111086313970	707.924749128058	123.135222671134	400.820696431621	681.237764312989	710.594031551372	611.546075866917	671.345573614694	1374.670016804240	491.029650288620	590.522105337598	381.386872019292	593.170277822955	537.974339921870	213.195138303329	563.959296357068	751.986937033099	783.341190344782	369.933785153601	635.534479700753	485.402054307195	583.137836664094	600.061753824487	87.497800322296	371.060907952489	711.912317396811	274.164465823420	398.867333000674	841.178415328699	532.393526530436	398.069548461742	661.317743167673	598.924813105193	593.303982311373	589.108196711250	661.798497825203	662.464632948782	803.273002712276	668.683963389912	379.642200048386	699.992276723534	678.141333299306	323.306181103354	652.153968703458	977.769488154578	619.196123433188	640.111107781678	960.919170171689	361.985962703918	775.363819236472	418.623191167771	382.433843209502	466.846731412932	993.539906456004	504.643277119859	
